<mxfile host="app.diagrams.net" modified="2022-06-01T21:34:15.125Z" agent="5.0 (Windows NT 10.0; Win64; x64) AppleWebKit/537.36 (KHTML, like Gecko) Chrome/100.0.4896.127 Safari/537.36 OPR/86.0.4363.64" etag="tym78CLfefC_UlNu6jLJ" version="18.2.0" type="github">
  <diagram name="Page-1" id="58cdce13-f638-feb5-8d6f-7d28b1aa9fa0">
    <mxGraphModel dx="1005" dy="1445" grid="1" gridSize="10" guides="1" tooltips="1" connect="1" arrows="1" fold="1" page="1" pageScale="1" pageWidth="1100" pageHeight="850" background="none" math="0" shadow="0">
      <root>
        <mxCell id="0" />
        <mxCell id="1" parent="0" />
        <mxCell id="zO54CJzg1BicQyHlgJjr-2" value="&lt;font style=&quot;font-size: 15px&quot;&gt;Urzędnik&lt;/font&gt;" style="shape=umlFrame;whiteSpace=wrap;html=1;rounded=1;shadow=0;comic=0;labelBackgroundColor=none;strokeWidth=1;fontFamily=Verdana;fontSize=15;align=center;width=140;height=30;" parent="1" vertex="1">
          <mxGeometry x="180" y="-110" width="1050" height="745" as="geometry" />
        </mxCell>
        <mxCell id="zO54CJzg1BicQyHlgJjr-3" value="" style="ellipse;html=1;shape=startState;fillColor=#000000;strokeColor=#ff0000;fontSize=15;" parent="1" vertex="1">
          <mxGeometry x="305" y="-60" width="30" height="30" as="geometry" />
        </mxCell>
        <mxCell id="zO54CJzg1BicQyHlgJjr-4" value="" style="edgeStyle=orthogonalEdgeStyle;html=1;verticalAlign=bottom;endArrow=open;endSize=8;strokeColor=#ff0000;entryX=0.5;entryY=0;entryDx=0;entryDy=0;fontSize=15;" parent="1" source="zO54CJzg1BicQyHlgJjr-3" target="zO54CJzg1BicQyHlgJjr-7" edge="1">
          <mxGeometry relative="1" as="geometry">
            <mxPoint x="410" y="370" as="targetPoint" />
            <Array as="points">
              <mxPoint x="320" y="-10" />
              <mxPoint x="320" y="-10" />
            </Array>
          </mxGeometry>
        </mxCell>
        <mxCell id="zO54CJzg1BicQyHlgJjr-6" value="Rejestracja urzędnika" style="text;strokeColor=none;fillColor=none;align=left;verticalAlign=top;spacingLeft=4;spacingRight=4;overflow=hidden;rotatable=0;points=[[0,0.5],[1,0.5]];portConstraint=eastwest;fontSize=15;" parent="1" vertex="1">
          <mxGeometry x="260" y="-10" width="160" height="26" as="geometry" />
        </mxCell>
        <mxCell id="zO54CJzg1BicQyHlgJjr-7" value="&lt;font style=&quot;font-size: 15px&quot;&gt;Zarejestrowany&lt;/font&gt;" style="rounded=1;whiteSpace=wrap;html=1;fontSize=15;" parent="1" vertex="1">
          <mxGeometry x="260" y="65" width="120" height="60" as="geometry" />
        </mxCell>
        <mxCell id="zO54CJzg1BicQyHlgJjr-8" value="" style="rounded=1;whiteSpace=wrap;html=1;fontSize=15;" parent="1" vertex="1">
          <mxGeometry x="480" y="-40" width="640" height="570" as="geometry" />
        </mxCell>
        <mxCell id="zO54CJzg1BicQyHlgJjr-10" value="&lt;font style=&quot;font-size: 15px;&quot;&gt;Zalogowany&lt;/font&gt;" style="text;html=1;strokeColor=none;fillColor=none;align=center;verticalAlign=middle;whiteSpace=wrap;rounded=0;fontSize=15;" parent="1" vertex="1">
          <mxGeometry x="760" y="-20" width="40" height="20" as="geometry" />
        </mxCell>
        <mxCell id="zO54CJzg1BicQyHlgJjr-11" value="&lt;font style=&quot;font-size: 15px&quot;&gt;Dostępny&lt;br style=&quot;font-size: 15px;&quot;&gt;&lt;br style=&quot;font-size: 15px;&quot;&gt;&lt;br style=&quot;font-size: 15px;&quot;&gt;Sprawdzanie stanu&lt;/font&gt;" style="rounded=1;whiteSpace=wrap;html=1;fontSize=15;" parent="1" vertex="1">
          <mxGeometry x="550" y="40" width="190" height="110" as="geometry" />
        </mxCell>
        <mxCell id="zO54CJzg1BicQyHlgJjr-12" value="" style="endArrow=classic;html=1;exitX=1;exitY=0.5;exitDx=0;exitDy=0;entryX=0;entryY=0.5;entryDx=0;entryDy=0;fontSize=15;" parent="1" source="zO54CJzg1BicQyHlgJjr-7" target="zO54CJzg1BicQyHlgJjr-11" edge="1">
          <mxGeometry width="50" height="50" relative="1" as="geometry">
            <mxPoint x="1030" y="350" as="sourcePoint" />
            <mxPoint x="1080" y="300" as="targetPoint" />
          </mxGeometry>
        </mxCell>
        <mxCell id="zO54CJzg1BicQyHlgJjr-13" value="Logowanie&lt;br style=&quot;font-size: 15px;&quot;&gt;" style="text;html=1;strokeColor=none;fillColor=none;align=center;verticalAlign=middle;whiteSpace=wrap;rounded=0;fontSize=15;" parent="1" vertex="1">
          <mxGeometry x="420" y="70" width="40" height="20" as="geometry" />
        </mxCell>
        <mxCell id="zO54CJzg1BicQyHlgJjr-20" value="" style="endArrow=none;html=1;fontSize=15;exitX=0;exitY=0.5;exitDx=0;exitDy=0;entryX=1;entryY=0.5;entryDx=0;entryDy=0;" parent="1" source="zO54CJzg1BicQyHlgJjr-11" target="zO54CJzg1BicQyHlgJjr-11" edge="1">
          <mxGeometry width="50" height="50" relative="1" as="geometry">
            <mxPoint x="1030" y="330" as="sourcePoint" />
            <mxPoint x="1080" y="280" as="targetPoint" />
          </mxGeometry>
        </mxCell>
        <mxCell id="zO54CJzg1BicQyHlgJjr-21" value="&lt;font style=&quot;font-size: 15px&quot;&gt;Niezalogowany&lt;br style=&quot;font-size: 15px;&quot;&gt;&lt;br style=&quot;font-size: 15px;&quot;&gt;&lt;br style=&quot;font-size: 15px;&quot;&gt;Sprawdzanie zalogowania&lt;/font&gt;" style="rounded=1;whiteSpace=wrap;html=1;fontSize=15;" parent="1" vertex="1">
          <mxGeometry x="550" y="242.5" width="200" height="117.5" as="geometry" />
        </mxCell>
        <mxCell id="zO54CJzg1BicQyHlgJjr-23" value="" style="endArrow=none;html=1;fontSize=15;exitX=0;exitY=0.5;exitDx=0;exitDy=0;entryX=1;entryY=0.5;entryDx=0;entryDy=0;" parent="1" target="zO54CJzg1BicQyHlgJjr-21" edge="1">
          <mxGeometry width="50" height="50" relative="1" as="geometry">
            <mxPoint x="550" y="300.53999999999974" as="sourcePoint" />
            <mxPoint x="670" y="300.53999999999974" as="targetPoint" />
          </mxGeometry>
        </mxCell>
        <mxCell id="zO54CJzg1BicQyHlgJjr-30" value="" style="endArrow=open;startArrow=none;endFill=0;startFill=0;endSize=8;startSize=10;html=1;fontSize=15;entryX=0.25;entryY=0;entryDx=0;entryDy=0;" parent="1" target="zO54CJzg1BicQyHlgJjr-21" edge="1">
          <mxGeometry width="160" relative="1" as="geometry">
            <mxPoint x="600" y="150" as="sourcePoint" />
            <mxPoint x="960" y="220" as="targetPoint" />
          </mxGeometry>
        </mxCell>
        <mxCell id="zO54CJzg1BicQyHlgJjr-31" value="" style="endArrow=none;startArrow=open;endFill=0;startFill=0;endSize=8;startSize=10;html=1;fontSize=15;entryX=0.25;entryY=0;entryDx=0;entryDy=0;" parent="1" edge="1">
          <mxGeometry width="160" relative="1" as="geometry">
            <mxPoint x="644.29" y="150" as="sourcePoint" />
            <mxPoint x="644.29" y="242.5" as="targetPoint" />
          </mxGeometry>
        </mxCell>
        <mxCell id="zO54CJzg1BicQyHlgJjr-32" value="Sprawdzenie &#xa;zalogowania" style="text;strokeColor=none;fillColor=none;align=center;verticalAlign=top;spacingLeft=4;spacingRight=4;overflow=hidden;rotatable=0;points=[[0,0.5],[1,0.5]];portConstraint=eastwest;fontSize=15;" parent="1" vertex="1">
          <mxGeometry x="490" y="190" width="100" height="50" as="geometry" />
        </mxCell>
        <mxCell id="zO54CJzg1BicQyHlgJjr-34" value="Ponowne&#xa;logowanie" style="text;strokeColor=none;fillColor=none;align=center;verticalAlign=top;spacingLeft=4;spacingRight=4;overflow=hidden;rotatable=0;points=[[0,0.5],[1,0.5]];portConstraint=eastwest;fontSize=15;" parent="1" vertex="1">
          <mxGeometry x="650" y="180" width="90" height="50" as="geometry" />
        </mxCell>
        <mxCell id="zO54CJzg1BicQyHlgJjr-35" value="Niedostępny" style="rounded=1;whiteSpace=wrap;html=1;fontSize=15;" parent="1" vertex="1">
          <mxGeometry x="700" y="560" width="120" height="60" as="geometry" />
        </mxCell>
        <mxCell id="zO54CJzg1BicQyHlgJjr-36" value="" style="ellipse;html=1;shape=endState;fillColor=#000000;strokeColor=#ff0000;fontSize=15;" parent="1" vertex="1">
          <mxGeometry x="450" y="575" width="30" height="30" as="geometry" />
        </mxCell>
        <mxCell id="zO54CJzg1BicQyHlgJjr-37" value="" style="endArrow=none;startArrow=open;endFill=0;startFill=0;endSize=8;startSize=10;html=1;fontSize=15;entryX=0;entryY=0.5;entryDx=0;entryDy=0;exitX=1;exitY=0.5;exitDx=0;exitDy=0;" parent="1" source="zO54CJzg1BicQyHlgJjr-36" target="zO54CJzg1BicQyHlgJjr-35" edge="1">
          <mxGeometry width="160" relative="1" as="geometry">
            <mxPoint x="339.28999999999996" y="370" as="sourcePoint" />
            <mxPoint x="339.28999999999996" y="462.5" as="targetPoint" />
          </mxGeometry>
        </mxCell>
        <mxCell id="zO54CJzg1BicQyHlgJjr-38" value="" style="endArrow=open;startArrow=none;endFill=0;startFill=0;endSize=8;startSize=10;html=1;fontSize=15;entryX=0.5;entryY=0;entryDx=0;entryDy=0;" parent="1" target="zO54CJzg1BicQyHlgJjr-35" edge="1">
          <mxGeometry width="160" relative="1" as="geometry">
            <mxPoint x="610" y="360" as="sourcePoint" />
            <mxPoint x="610" y="252.5" as="targetPoint" />
          </mxGeometry>
        </mxCell>
        <mxCell id="zO54CJzg1BicQyHlgJjr-40" value="Błędne&#xa; logowanie" style="text;strokeColor=none;fillColor=none;align=center;verticalAlign=top;spacingLeft=4;spacingRight=4;overflow=hidden;rotatable=0;points=[[0,0.5],[1,0.5]];portConstraint=eastwest;fontSize=15;" parent="1" vertex="1">
          <mxGeometry x="530" y="420" width="80" height="50" as="geometry" />
        </mxCell>
        <mxCell id="zO54CJzg1BicQyHlgJjr-41" value="Zawieszony&amp;nbsp;&lt;br style=&quot;font-size: 15px;&quot;&gt;w&lt;br style=&quot;font-size: 15px;&quot;&gt;czynnościach" style="rounded=1;whiteSpace=wrap;html=1;fontSize=15;align=center;" parent="1" vertex="1">
          <mxGeometry x="880" y="45" width="170" height="80" as="geometry" />
        </mxCell>
        <mxCell id="zO54CJzg1BicQyHlgJjr-42" value="Wylogowany" style="rounded=1;whiteSpace=wrap;html=1;fontSize=15;align=center;" parent="1" vertex="1">
          <mxGeometry x="881" y="261" width="170" height="80" as="geometry" />
        </mxCell>
        <mxCell id="zO54CJzg1BicQyHlgJjr-44" value="" style="endArrow=none;startArrow=open;endFill=0;startFill=0;endSize=8;startSize=10;html=1;fontSize=15;entryX=0;entryY=0.25;entryDx=0;entryDy=0;exitX=1;exitY=0.25;exitDx=0;exitDy=0;" parent="1" source="zO54CJzg1BicQyHlgJjr-11" target="zO54CJzg1BicQyHlgJjr-41" edge="1">
          <mxGeometry width="160" relative="1" as="geometry">
            <mxPoint x="654.29" y="160" as="sourcePoint" />
            <mxPoint x="654.29" y="252.5" as="targetPoint" />
          </mxGeometry>
        </mxCell>
        <mxCell id="zO54CJzg1BicQyHlgJjr-45" value="" style="endArrow=none;startArrow=none;endFill=0;startFill=0;endSize=8;startSize=10;html=1;fontSize=15;entryX=1;entryY=0.75;entryDx=0;entryDy=0;" parent="1" source="zO54CJzg1BicQyHlgJjr-53" target="zO54CJzg1BicQyHlgJjr-11" edge="1">
          <mxGeometry width="160" relative="1" as="geometry">
            <mxPoint x="881" y="110" as="sourcePoint" />
            <mxPoint x="664.29" y="262.5" as="targetPoint" />
          </mxGeometry>
        </mxCell>
        <mxCell id="zO54CJzg1BicQyHlgJjr-46" value="Ponowne&#xa;logowanie" style="text;strokeColor=none;fillColor=none;align=center;verticalAlign=top;spacingLeft=4;spacingRight=4;overflow=hidden;rotatable=0;points=[[0,0.5],[1,0.5]];portConstraint=eastwest;fontSize=15;" parent="1" vertex="1">
          <mxGeometry x="820" y="180" width="90" height="50" as="geometry" />
        </mxCell>
        <mxCell id="zO54CJzg1BicQyHlgJjr-47" value="" style="endArrow=none;startArrow=open;endFill=0;startFill=0;endSize=8;startSize=10;html=1;fontSize=15;exitX=1;exitY=0.5;exitDx=0;exitDy=0;" parent="1" source="zO54CJzg1BicQyHlgJjr-41" edge="1">
          <mxGeometry width="160" relative="1" as="geometry">
            <mxPoint x="750" y="77.49999999999977" as="sourcePoint" />
            <mxPoint x="1000" y="40" as="targetPoint" />
            <Array as="points">
              <mxPoint x="1080" y="85" />
              <mxPoint x="1080" />
              <mxPoint x="1000" />
            </Array>
          </mxGeometry>
        </mxCell>
        <mxCell id="zO54CJzg1BicQyHlgJjr-48" value="Zawieszenie &#xa;[czas zawieszenia &lt; 6msc]" style="text;strokeColor=none;fillColor=none;align=center;verticalAlign=top;spacingLeft=4;spacingRight=4;overflow=hidden;rotatable=0;points=[[0,0.5],[1,0.5]];portConstraint=eastwest;fontSize=15;" parent="1" vertex="1">
          <mxGeometry x="1060" y="-15" width="240" height="80" as="geometry" />
        </mxCell>
        <mxCell id="zO54CJzg1BicQyHlgJjr-49" value="Odwieszenie&#xa;urzędnika" style="text;strokeColor=none;fillColor=none;align=center;verticalAlign=top;spacingLeft=4;spacingRight=4;overflow=hidden;rotatable=0;points=[[0,0.5],[1,0.5]];portConstraint=eastwest;fontSize=15;" parent="1" vertex="1">
          <mxGeometry x="770" y="10" width="90" height="50" as="geometry" />
        </mxCell>
        <mxCell id="zO54CJzg1BicQyHlgJjr-51" value="" style="endArrow=open;startArrow=none;endFill=0;startFill=0;endSize=8;startSize=10;html=1;fontSize=15;entryX=1;entryY=1;entryDx=0;entryDy=0;exitX=0;exitY=0.25;exitDx=0;exitDy=0;" parent="1" source="zO54CJzg1BicQyHlgJjr-42" target="zO54CJzg1BicQyHlgJjr-11" edge="1">
          <mxGeometry width="160" relative="1" as="geometry">
            <mxPoint x="610" y="160" as="sourcePoint" />
            <mxPoint x="610" y="252.5" as="targetPoint" />
          </mxGeometry>
        </mxCell>
        <mxCell id="zO54CJzg1BicQyHlgJjr-54" value="" style="endArrow=open;startArrow=none;endFill=0;startFill=0;endSize=8;startSize=10;html=1;fontSize=15;entryX=1;entryY=0;entryDx=0;entryDy=0;exitX=0;exitY=1;exitDx=0;exitDy=0;" parent="1" source="zO54CJzg1BicQyHlgJjr-42" target="zO54CJzg1BicQyHlgJjr-35" edge="1">
          <mxGeometry width="160" relative="1" as="geometry">
            <mxPoint x="891" y="291" as="sourcePoint" />
            <mxPoint x="750" y="160" as="targetPoint" />
          </mxGeometry>
        </mxCell>
        <mxCell id="zO54CJzg1BicQyHlgJjr-53" value="Zawieszenie&#xa;urzędnika" style="text;strokeColor=none;fillColor=none;align=center;verticalAlign=top;spacingLeft=4;spacingRight=4;overflow=hidden;rotatable=0;points=[[0,0.5],[1,0.5]];portConstraint=eastwest;fontSize=15;" parent="1" vertex="1">
          <mxGeometry x="770" y="90" width="90" height="50" as="geometry" />
        </mxCell>
        <mxCell id="zO54CJzg1BicQyHlgJjr-55" value="" style="endArrow=none;startArrow=open;endFill=0;startFill=0;endSize=8;startSize=10;html=1;fontSize=15;entryX=1;entryY=0.75;entryDx=0;entryDy=0;" parent="1" target="zO54CJzg1BicQyHlgJjr-53" edge="1">
          <mxGeometry width="160" relative="1" as="geometry">
            <mxPoint x="881" y="110" as="sourcePoint" />
            <mxPoint x="740" y="122.5" as="targetPoint" />
          </mxGeometry>
        </mxCell>
      </root>
    </mxGraphModel>
  </diagram>
</mxfile>
